<svg xmlns="http://www.w3.org/2000/svg" xml:space="preserve" id="svg1" width="422.261" height="171.613" viewBox="0 0 111.723 45.406">
    <defs id="defs1">
        <style id="style1">
            .cls-1{font-family:ZagBold,&quot;Zag Bold&quot;;font-size:96px}
        </style>
    </defs>
    <g id="layer1" transform="translate(-2689.75 -124.739)">
        <g id="g91">
            <path id="path7-7-6-6" d="M2707.42 124.739c3.133 0 5.745 2.56 5.745 5.692v.02c-.024 2.152.988 3.948 2.545 5.102a6.05 6.05 0 0 0 3.68 1.175 6.4 6.4 0 0 0 1.648-.211c.683-.18 1.429-.444 2.202-.444.614 0 1.224.1 1.81.297a5.56 5.56 0 0 1 3.273 2.854 5.54 5.54 0 0 1 .482 3.647 5.68 5.68 0 0 1-5.567 4.575c-.778 0-1.441-.294-2.17-.463a6.4 6.4 0 0 0-1.681-.201c-1.307 0-2.585.456-3.669 1.244a6.43 6.43 0 0 0-2.598 5.053c0 .623-.099 1.245-.303 1.852a5.68 5.68 0 0 1-5.38 3.869 5.6 5.6 0 0 1-1.81-.298 5.64 5.64 0 0 1-3.27-2.86 5.64 5.64 0 0 1-.3-4.335 5.677 5.677 0 0 1 7.173-3.579l.112.038a6.263 6.263 0 0 0 5.642-.886 6.27 6.27 0 0 0 2.58-5.096v-.16a6.26 6.26 0 0 0-2.61-4.995 6.25 6.25 0 0 0-5.694-.834 5.686 5.686 0 0 1-7.52-5.376 5.685 5.685 0 0 1 5.68-5.68z" class="cls-1" style="font-size:96px;font-family:ZagBold,&quot;Zag Bold&quot;;display:inline;fill:#000;fill-opacity:1;stroke-width:0"/>
            <path id="path287" d="M2719.295 130.093a.5.5 0 0 0-.496.504l.168 22.535a.5.5 0 0 0 .504.498.5.5 0 0 0 .496-.504l-.168-22.537a.5.5 0 0 0-.504-.496" style="baseline-shift:baseline;display:inline;overflow:visible;vector-effect:none;fill:#ff9200;stroke-linecap:round;stroke-linejoin:round;paint-order:stroke fill markers;stop-color:#000"/>
            <path id="path289" d="m2719.059 130.154-20.045 10.988a.5.5 0 0 0-.198.678.5.5 0 0 0 .678.199l20.045-10.988a.5.5 0 0 0 .2-.678.5.5 0 0 0-.68-.2" style="baseline-shift:baseline;display:inline;overflow:visible;vector-effect:none;fill:#ff9200;stroke-linecap:round;stroke-linejoin:round;paint-order:stroke fill markers;stop-color:#000"/>
            <path id="path291" d="M2699.256 141.23a.5.5 0 0 0-.502.498l-.117 22.869a.5.5 0 0 0 .498.504.5.5 0 0 0 .502-.498l.117-22.871a.5.5 0 0 0-.498-.502" style="baseline-shift:baseline;display:inline;overflow:visible;vector-effect:none;fill:#ff9200;stroke-linecap:round;stroke-linejoin:round;paint-order:stroke fill markers;stop-color:#000"/>
            <path id="path292" d="m2699.254 141.73-.118 22.87" style="baseline-shift:baseline;display:inline;overflow:visible;vector-effect:none;fill:#1a1a1a;stroke-linecap:round;stroke-linejoin:round;paint-order:stroke fill markers;stop-color:#000"/>
            <path id="path293" d="m2719.059 133.886-20.045 10.986a.5.5 0 0 0-.198.68.5.5 0 0 0 .678.197l20.045-10.986a.5.5 0 0 0 .2-.68.5.5 0 0 0-.68-.197" style="baseline-shift:baseline;display:inline;overflow:visible;vector-effect:none;fill:#ff9200;stroke-linecap:round;stroke-linejoin:round;paint-order:stroke fill markers;stop-color:#000"/>
            <path id="path295" d="m2719.059 138.519-20.045 10.988a.5.5 0 0 0-.198.678.5.5 0 0 0 .678.2l20.045-10.99a.5.5 0 0 0 .2-.679.5.5 0 0 0-.68-.197" style="baseline-shift:baseline;display:inline;overflow:visible;vector-effect:none;fill:#ff9200;stroke-linecap:round;stroke-linejoin:round;paint-order:stroke fill markers;stop-color:#000"/>
            <path id="path297" d="m2719.059 143.152-20.045 10.988a.5.5 0 0 0-.198.678.5.5 0 0 0 .678.199l20.045-10.988a.5.5 0 0 0 .2-.678.5.5 0 0 0-.68-.2" style="baseline-shift:baseline;display:inline;overflow:visible;vector-effect:none;fill:#ff9200;stroke-linecap:round;stroke-linejoin:round;paint-order:stroke fill markers;stop-color:#000"/>
            <path id="path299" d="m2719.059 147.785-20.045 10.988a.5.5 0 0 0-.198.678.5.5 0 0 0 .678.199l20.045-10.989a.5.5 0 0 0 .2-.677.5.5 0 0 0-.68-.2" style="baseline-shift:baseline;display:inline;overflow:visible;vector-effect:none;fill:#ff9200;stroke-linecap:round;stroke-linejoin:round;paint-order:stroke fill markers;stop-color:#000"/>
            <path id="path301" d="M2704.256 138.429a.5.5 0 0 0-.502.498l-.117 22.871a.5.5 0 0 0 .498.502.5.5 0 0 0 .502-.498l.117-22.87a.5.5 0 0 0-.498-.503" style="baseline-shift:baseline;display:inline;overflow:visible;vector-effect:none;fill:#ff9200;stroke-linecap:round;stroke-linejoin:round;paint-order:stroke fill markers;stop-color:#000"/>
            <path id="path303" d="M2709.256 135.63a.5.5 0 0 0-.502.498l-.117 22.87a.5.5 0 0 0 .498.503.5.5 0 0 0 .502-.498l.117-22.87a.5.5 0 0 0-.498-.503" style="baseline-shift:baseline;display:inline;overflow:visible;vector-effect:none;fill:#ff9200;stroke-linecap:round;stroke-linejoin:round;paint-order:stroke fill markers;stop-color:#000"/>
            <path id="path304" d="m2709.254 136.13-.118 22.87" style="baseline-shift:baseline;display:inline;overflow:visible;vector-effect:none;fill:#1a1a1a;stroke-linecap:round;stroke-linejoin:round;paint-order:stroke fill markers;stop-color:#000"/>
            <path id="path305" d="M2714.256 132.83a.5.5 0 0 0-.502.497l-.117 22.872a.5.5 0 0 0 .498.502.5.5 0 0 0 .502-.499l.117-22.869a.5.5 0 0 0-.498-.504" style="baseline-shift:baseline;display:inline;overflow:visible;vector-effect:none;fill:#ff9200;stroke-linecap:round;stroke-linejoin:round;paint-order:stroke fill markers;stop-color:#000"/>
            <path id="text125" d="M2734.947 165.198h1.448v1.917c-.013.699-.66 1.08-1.346 1.08s-1.372-.394-1.372-1.13v-4.738c0-.723.66-1.104 1.346-1.104.673 0 1.334.495 1.334 1.46h1.067c-.013-1.664-1.207-2.515-2.4-2.515-1.22 0-2.388.724-2.388 2.16v4.737c0 1.447 1.194 2.184 2.413 2.184 1.206 0 2.4-.724 2.4-2.134v-2.159c0-.47-.343-.8-.825-.8h-1.677zm4.564 3.975v-4.382c.102-.838 1.016-.94 1.613-.52l.356-.928c-.686-.546-1.664-.533-2.02.369l-.114-.623h-.85v6.084zm3.027-8.09c-.33 0-.622.254-.622.648 0 .368.292.635.622.635.343 0 .66-.267.66-.635 0-.394-.317-.648-.66-.648m.521 1.981h-1.016v6.109h1.016zm3.066 6.185c.38 0 .825-.19 1.054-.711l.203.635h.775v-8.662h-1.03v3.1c-.228-.42-.634-.572-.977-.598-1.13-.089-2.045.927-2.045 1.956v2.426c0 1.054.635 1.854 2.02 1.854m-.991-4.28c0-.52.47-.927 1.016-.927.635 0 .965.368.978.876v2.413c0 .445-.432.902-.978.902-.559 0-1.016-.33-1.016-.838zm6.875-3.632c.546 0 1.016.495 1.016 1.067v4.673c0 .572-.47 1.042-1.016 1.042h-1.701c0-2.299-.013-4.496-.013-6.782zm-1.943 7.836h1.943c1.08 0 2.07-.89 2.07-2.096v-4.686c0-1.13-.99-2.108-2.07-2.108h-1.943c-.47 0-.812.33-.812.813v7.251c0 .432.304.826.812.826m6.914.076c.317 0 .965-.19 1.092-.724l.102.648h.825v-4.153c0-1.118-.94-2.02-2.02-2.02-.494 0-1.091.28-1.523.674l.559.85c.343-.33.71-.482.965-.482a.99.99 0 0 1 .99.978l.025.533c-.14-.406-.635-.673-1.041-.673-1.168 0-1.981.915-1.981 1.981v.356c0 1.092.914 2.032 2.006 2.032zm-.978-2.032v-.356c0-.546.444-.978.978-.978.546 0 .99.356.99.864v.622c0 .458-.508.851-.99.851-.534 0-.978-.457-.978-1.003m5.123-4.178v-2.477h-1.016v6.553c0 1.207 1.117 2.058 2.4 2.058v-1.016c-.75 0-1.384-.457-1.384-1.042v-3.048h1.27v-1.028zm3.56 6.21c.318 0 .966-.19 1.093-.724l.101.648h.826v-4.153c0-1.118-.94-2.02-2.02-2.02-.495 0-1.092.28-1.523.674l.558.85c.343-.33.712-.482.966-.482a.99.99 0 0 1 .99.978l.025.533c-.14-.406-.635-.673-1.041-.673-1.169 0-1.981.915-1.981 1.981v.356c0 1.092.914 2.032 2.006 2.032zm-.977-2.032v-.356c0-.546.444-.978.978-.978.546 0 .99.356.99.864v.622c0 .458-.508.851-.99.851-.534 0-.978-.457-.978-1.003m8.132-6.934h-3.187c-.42 0-.839.343-.839.825v8.065h1.055v-4.039h2.78v-1.054h-2.78v-2.718l2.971-.025zm4.526 4.711c0-1.371-1.028-2.006-2.07-2.006-1.029 0-2.057.635-2.057 2.006v2.223c0 1.359 1.016 2.02 2.057 2.02 1.029 0 2.07-.661 2.07-2.02zm-1.028 2.223c0 .648-.521.978-1.042.978-.508 0-1.041-.33-1.041-.978v-2.223c0-.647.533-.99 1.041-.99.52 0 1.042.343 1.042.99zm3.128 1.956v-4.382c.102-.838 1.016-.94 1.613-.52l.356-.928c-.686-.546-1.664-.533-2.02.369l-.114-.623h-.85v6.084zm3.7-4.166a.99.99 0 0 1 .979-.99c.559 0 1.003.457 1.003.99v4.166h1.016v-4.166c0-1.32 1.994-1.384 1.981 0v4.166h1.016v-4.166c0-1.13-.889-2.02-1.981-2.02-.584 0-1.206.23-1.511 1.017-.318-.788-.99-1.029-1.499-1.016-.368.013-.838.178-1.092.673l-.127-.597h-.8v6.109h1.016zm9.327 4.242c.318 0 .966-.19 1.093-.724l.101.648h.826v-4.153c0-1.118-.94-2.02-2.02-2.02-.495 0-1.092.28-1.524.674l.56.85c.342-.33.71-.482.964-.482a.99.99 0 0 1 .991.978l.025.533c-.14-.406-.635-.673-1.041-.673-1.169 0-1.982.915-1.982 1.981v.356c0 1.092.915 2.032 2.007 2.032zm-.977-2.032v-.356c0-.546.444-.978.977-.978.547 0 .991.356.991.864v.622c0 .458-.508.851-.99.851-.534 0-.978-.457-.978-1.003m5.122-4.178v-2.477h-1.016v6.553c0 1.207 1.118 2.058 2.4 2.058v-1.016c-.749 0-1.384-.457-1.384-1.042v-3.048h1.27v-1.028zm5.809 1.092c-.52-.788-1.207-1.143-1.854-1.143-1.016 0-2.02.698-2.007 1.943 0 1.181.851 1.626 1.905 1.651.495.013.953.267.953.8 0 .559-.483.851-.991.851-.394 0-.838-.229-1.13-.711l-.877.47c.47.825 1.309 1.27 1.994 1.27 1.016 0 2.045-.597 2.032-1.88 0-1.22-.965-1.816-1.968-1.841-.495-.013-.902-.153-.89-.61 0-.267.102-.47.23-.61.19-.203.47-.33.761-.33.28 0 .648.254.978.711z" aria-label="GridDataFormats" style="fill:gray;stroke-width:.177966;stroke-linecap:round;stroke-linejoin:round;paint-order:stroke fill markers"/>
            <path id="path19-2-0-8" d="M2711.254 136.083a5.687 5.687 0 0 0-5.68 5.68v.02c-.131 2.099-.912 3.729-2.616 5.01-1.079.777-2.408 1.236-3.704 1.236-.56 0-1.063-.064-1.613-.217-.715-.17-1.434-.395-2.208-.395-.613 0-1.224.1-1.81.298a5.56 5.56 0 0 0-3.273 2.853 5.54 5.54 0 0 0-.482 3.647 5.68 5.68 0 0 0 5.567 4.576c.778 0 1.188-.265 2.164-.479a7 7 0 0 1 1.689-.161c1.318.03 2.528.446 3.628 1.23 1.634 1.187 2.682 3.2 2.671 5.22 0 .622.065 1.068.269 1.674a5.68 5.68 0 0 0 5.38 3.87c.615 0 1.223-.1 1.81-.298a5.64 5.64 0 0 0 3.27-2.86 5.64 5.64 0 0 0 .3-4.336 5.677 5.677 0 0 0-7.173-3.578l-.112.038a6.263 6.263 0 0 1-5.642-.886 6.27 6.27 0 0 1-2.58-5.096v-.16a6.26 6.26 0 0 1 2.611-4.995 6.25 6.25 0 0 1 5.694-.834 5.685 5.685 0 0 0 7.52-5.376 5.685 5.685 0 0 0-5.68-5.68z" style="fill:gray;fill-opacity:1;stroke-width:.264584;stroke-linecap:round;paint-order:stroke fill markers;stop-color:#000"/>
            <path id="path17-3-1-8" d="M2722.383 153.13a2.916 2.916 0 0 1-2.916 2.915 2.916 2.916 0 0 1-2.916-2.916 2.916 2.916 0 0 1 2.916-2.916 2.916 2.916 0 0 1 2.916 2.916" style="baseline-shift:baseline;display:inline;overflow:visible;vector-effect:none;fill:#ff9200;fill-opacity:1;stroke-width:.264584;paint-order:stroke fill markers;stop-color:#000"/>
            <path id="path15-3-5-8" d="M2723.051 130.593a3.75 3.75 0 0 1-3.752 3.752 3.75 3.75 0 0 1-3.752-3.752 3.75 3.75 0 0 1 3.752-3.753 3.75 3.75 0 0 1 3.752 3.753" style="baseline-shift:baseline;display:inline;overflow:visible;vector-effect:none;fill:#ff9200;fill-opacity:1;stroke-width:.264584;stroke-linecap:round;paint-order:stroke fill markers;stop-color:#000"/>
            <path id="path13-2-5-43" d="M2704.238 164.6a5.1 5.1 0 0 1-5.102 5.102 5.1 5.1 0 0 1-5.101-5.102 5.1 5.1 0 0 1 5.101-5.101 5.1 5.1 0 0 1 5.102 5.101" style="baseline-shift:baseline;display:inline;overflow:visible;vector-effect:none;fill:#ff9200;fill-opacity:1;stroke-width:.264584;paint-order:stroke fill markers;stop-color:#000"/>
            <path id="path11-3-4-1" d="M2701.166 141.73a1.91 1.91 0 0 1-1.912 1.912 1.91 1.91 0 0 1-1.912-1.912 1.91 1.91 0 0 1 1.912-1.912 1.91 1.91 0 0 1 1.912 1.912" style="baseline-shift:baseline;display:inline;overflow:visible;vector-effect:none;fill:#ff9200;fill-opacity:1;stroke-width:.264584;stroke-linecap:round;stroke-linejoin:round;paint-order:stroke fill markers;stop-color:#000"/>
            <path id="path307" d="m2719.212 152.7-19.913 11.77a.5.5 0 0 0-.175.684.5.5 0 0 0 .685.176l19.912-11.77a.5.5 0 0 0 .176-.685.5.5 0 0 0-.685-.176" style="baseline-shift:baseline;display:inline;overflow:visible;vector-effect:none;fill:#ff9200;stroke-linecap:round;stroke-linejoin:round;paint-order:stroke fill markers;stop-color:#000"/>
            <path id="text158" d="m2737.779 134.02-.105 1.132h-.126l-.105-1.09c-.587-2.18-1.09-4.32-1.803-6.584a1.38 1.38 0 0 0-1.3-.944c-.671 0-1.49.378-1.468 1.258v13.42h1.72l-.043-10.19-.21-2.81h.147l.378 2.16 1.677 5.598c.231.503.671.797 1.049.797.482 0 .922-.315 1.09-.797.545-1.677 1.153-3.732 1.72-5.494l.482-2.264h.273l-.483 2.914-.063 9.793.021.293h1.72V127.75c-.042-.88-.755-1.3-1.384-1.3-.503 0-1.049.315-1.28.965a109 109 0 0 0-1.11 3.648c-.294.986-.525 1.992-.797 2.957m11.176-5.745c.902 0 1.677.817 1.677 1.76v7.717c0 .944-.776 1.72-1.677 1.72h-2.81c0-3.795-.021-7.423-.021-11.197zm-3.208 12.937h3.208a3.454 3.454 0 0 0 3.418-3.46v-7.737c0-1.866-1.636-3.48-3.418-3.48h-3.208c-.776 0-1.342.544-1.342 1.341v11.973c0 .713.503 1.363 1.342 1.363" aria-label="MD" class="cls-1" style="font-size:20.9687px;font-family:&quot;Zag Bold&quot;;-inkscape-font-specification:&quot;Zag Bold, Normal&quot;;stroke-width:.258219"/>
            <path id="text159" d="M2740.758 158.4h1.912l-3.631-14.05c-.194-.688-.86-1.161-1.397-1.161-.558 0-1.182.43-1.44 1.203l-3.566 14.009h1.87c.193-.795.472-1.87 1.31-5.135h3.61zm-4.512-6.896c.408-1.719.709-3.631 1.138-5.35l.172-1.461h.172l.15 1.46 1.096 5.35zm14.051-8.143.086 10.42.623 2.836h-.129l-4.426-12.504.021.043c-.107-.537-.752-.86-1.268-.86-.623 0-1.224.473-1.203 1.268v13.837h1.827l-.086-10.356-.516-2.643.258-.065c.193.559.623 2.643 1.01 3.674 1.117 2.922 2.148 5.973 3.222 8.616.215.473.795.774 1.225.774.58 0 1.139-.409 1.139-1.225v-13.815zm11.43 15.04h1.913l-3.631-14.052c-.194-.687-.86-1.16-1.397-1.16-.559 0-1.182.43-1.44 1.203l-3.566 14.009h1.87c.193-.795.472-1.87 1.31-5.135h3.61zm-4.511-6.897c.408-1.719.709-3.631 1.138-5.35l.172-1.461h.172l.15 1.46 1.096 5.35zm14.782 6.897v-1.784h-5.2l-.02-13.256h-1.806v13.665c0 .838.752 1.418 1.483 1.375zm6.36-15.04h-1.934c-.473 1.117-1.913 4.898-2.407 6.102-.043.193-.15 1.01-.172 1.181l-.193-1.16c-.559-1.396-1.805-4.705-2.428-6.123h-1.89a198 198 0 0 0 2.212 5.22c.495 1.14.946 2.214 1.397 3.288v6.532h1.783v-6.489zm.343 3.437v1.247c.021 2.771 1.912 3.201 3.782 3.566 1.16.194 2.363.473 2.363 1.762v1.547c0 1.182-1.117 1.826-2.213 1.826-1.117 0-2.192-.816-2.192-2.428h-1.74c-.022 2.794 1.89 4.233 3.932 4.233 1.955 0 3.975-1.225 3.975-3.631v-1.547c0-2.621-2.02-3.158-3.76-3.524-1.053-.214-2.407-.623-2.407-1.804v-1.247c0-1.181 1.096-1.826 2.213-1.826 1.096 0 2.192.838 2.192 2.428h1.762c0-2.772-1.998-4.211-3.954-4.211-2.02 0-3.953 1.225-3.953 3.61m11.645 11.603v-15.04h-1.783v15.04zm1.998-11.603v1.247c.021 2.771 1.913 3.201 3.782 3.566 1.16.194 2.363.473 2.363 1.762v1.547c0 1.182-1.117 1.826-2.213 1.826-1.117 0-2.191-.816-2.191-2.428h-1.74c-.022 2.794 1.89 4.233 3.931 4.233 1.956 0 3.975-1.225 3.975-3.631v-1.547c0-2.621-2.02-3.158-3.76-3.524-1.053-.214-2.406-.623-2.406-1.804v-1.247c0-1.181 1.096-1.826 2.213-1.826 1.096 0 2.191.838 2.191 2.428h1.762c0-2.772-1.998-4.211-3.953-4.211-2.02 0-3.954 1.225-3.954 3.61" aria-label="ANALYSIS" style="fill:#ff9200;stroke-width:.264584"/>
        </g>
    </g>
</svg>
